<svg width="259" height="46" viewBox="0 0 259 46" fill="none" xmlns="http://www.w3.org/2000/svg"><path d="M23.2686 23.4609h-1.0665V28h-1.3125v-4.5391h-1.1279L16.9453 28h-1.6406l3.3496-5.25-3.0898-4.7031h1.5517l2.6455 4.3203h1.1279v-4.3203h1.3125v4.3203h1.0801l2.6455-4.3203h1.545l-3.0899 4.6963L27.7324 28h-1.6338l-2.83-4.5391zm8.415 4.6758c-1.0026 0-1.8184-.3281-2.4473-.9844-.6289-.6608-.9433-1.5426-.9433-2.6455v-.2324c0-.7337.139-1.3877.417-1.9619.2825-.5788.6744-1.0299 1.1757-1.3535.5059-.3281 1.0528-.4922 1.6407-.4922.9616 0 1.709.3167 2.2422.9502.5332.6335.7998 1.5404.7998 2.7207v.5264h-5.0108c.0182.7291.2302 1.3193.6358 1.7705.4101.4466.9296.6699 1.5586.6699.4466 0 .8248-.0912 1.1347-.2734.3099-.1823.5811-.4239.8135-.7247l.7725.6016c-.6198.9525-1.5495 1.4287-2.7891 1.4287zm-.1572-6.6308c-.5104 0-.9388.1868-1.2852.5605-.3463.3691-.5605.8887-.6426 1.5586h3.7051v-.0957c-.0364-.6426-.2096-1.1393-.5195-1.4902-.3099-.3555-.7292-.5332-1.2578-.5332zM42.0811 28h-1.2647v-3.1582h-3.3975V28h-1.2714v-7.3965h1.2714v3.2061h3.3975v-3.2061h1.2647V28zm7.6904-7.3965V28H48.5v-2.8779h-1.9072L44.8496 28h-1.3672l1.8594-3.0693c-.474-.1732-.8385-.4398-1.0938-.7998-.2506-.3646-.3759-.7885-.3759-1.2715 0-.6745.2529-1.2168.7588-1.627.5058-.4147 1.1826-.6243 2.0302-.6289h3.1104zm-4.6279 2.2695c0 .3601.123.6517.3691.875.2461.2188.5719.3305.9775.335H48.5v-2.4541h-1.8184c-.4694 0-.8431.1162-1.1211.3486-.2779.2279-.4169.5264-.4169.8955zm13.5761-1.0117l2.3858-3.8144h1.5449l-3.1445 4.9355L62.7256 28H61.167l-2.4473-3.8828L56.2588 28H54.707l3.2266-5.0176-3.1514-4.9355h1.5381l2.3994 3.8144zm8.9483 1.9619l2.29-5.7763h1.5244l-3.5205 8.292c-.237.5286-.458.9046-.6631 1.1279-.205.2187-.4466.3874-.7246.5059-.2734.1139-.6175.1709-1.0322.1709-.36 0-.5902-.0206-.6904-.0616l.041-1.039.622.0273c.4786 0 .834-.2301 1.0665-.6904l.1709-.3555.2597-.6084-3.3906-7.3691h1.4697l2.5772 5.7763zm11.6621-5.7763h1.3125V28h-1.3125v-7.6699L74.4287 28h-1.3193v-9.9531h1.3193v7.6699l4.9014-7.6699zm-.3692-2.4746c0 .5514-.1891.9957-.5673 1.333-.3737.3327-.8659.499-1.4766.499-.6107 0-1.1052-.1686-1.4834-.5059-.3783-.3372-.5674-.7793-.5674-1.3261h1.0322c0 .319.0866.5696.2598.7519.1732.1778.4261.2666.7588.2666.319 0 .5674-.0888.7451-.2666.1823-.1777.2734-.4284.2734-.7519h1.0254z" fill="#000"/></svg>